<svg width="175" height="175" viewBox="0 0 175 175" fill="none" xmlns="http://www.w3.org/2000/svg">
<rect width="175" height="175" rx="25" fill="#AEBED6"/>
<rect x="50" y="50" width="100" height="100" rx="15" fill="#133266"/>
<rect x="28.5" y="28.5" width="93" height="93" rx="11.5" fill="#EFC1C4" stroke="#133266" stroke-width="7"/>
<g clip-path="url(#clip0_1_2262)">
<path d="M63.777 75.14H59.9V93.355H63.777V75.14Z" fill="#133266"/>
<path d="M90.551 81.188H86.674V93.356H90.551V81.188Z" fill="#133266"/>
<path d="M100 81.187V84.454H97.721V93.355H93.843V84.454H91.564V81.187H93.843V75.14H97.721V81.187H100Z" fill="#133266"/>
<path d="M55.461 79.761V81.028H58.437V84.394H55.461V93.355H51.586V84.394H50V81.028H51.586V79.736C51.586 77.198 53.643 75.14 56.182 75.14H58.438V78.407H56.816C56.068 78.407 55.462 79.013 55.462 79.761H55.461Z" fill="#133266"/>
<path d="M67.856 79.28C69.0379 79.28 69.996 78.3219 69.996 77.14C69.996 75.9581 69.0379 75 67.856 75C66.6741 75 65.716 75.9581 65.716 77.14C65.716 78.3219 66.6741 79.28 67.856 79.28Z" fill="#133266"/>
<path d="M79.188 80.138C75.473 80.251 71.691 84.137 72.288 89.356C69.478 87.844 69.493 83.367 69.533 82.369C69.535 82.365 69.535 82.361 69.535 82.36C69.539 82.237 69.544 82.169 69.544 82.169C69.544 81.141 68.712 80.309 67.684 80.309C66.656 80.309 65.824 81.14 65.824 82.169C65.824 82.201 65.824 82.233 65.826 82.265C65.869 92.098 72.627 93.768 72.627 93.768C72.846 99.401 76.847 105.375 76.847 105.375C76.847 105.375 75.212 105.156 73.846 105.035C72.482 104.912 71.994 107.034 73.627 107.497C81.698 108.886 81.455 108.058 81.455 108.058C81.455 108.058 82.115 107.398 82.455 104.424C82.797 101.449 83.162 100.28 81.675 100.231C80.188 100.182 80.018 103.595 80.018 103.595C77.896 101.083 76.433 94.647 76.433 94.647C81.813 94.938 85.564 90.894 85.699 86.893C85.82 83.35 82.728 80.031 79.189 80.137L79.188 80.138ZM75.896 90.917C75.896 90.917 75.359 82.186 80.774 84.248C83.163 85.406 82.286 91.476 75.896 90.917Z" fill="#133266"/>
<path d="M88.613 79.42C89.7949 79.42 90.753 78.4619 90.753 77.28C90.753 76.0981 89.7949 75.14 88.613 75.14C87.4311 75.14 86.473 76.0981 86.473 77.28C86.473 78.4619 87.4311 79.42 88.613 79.42Z" fill="#133266"/>
</g>
<defs>
<clipPath id="clip0_1_2262">
<rect width="50" height="33.304" fill="white" transform="translate(50 75)"/>
</clipPath>
</defs>
</svg>
