<svg width="2000" height="2000" viewBox="0 0 2000 2000" fill="none" xmlns="http://www.w3.org/2000/svg">
<path d="M709.42 1202.48L734.37 1191.16L624.11 1000.1L592.66 1000.17L709.42 1202.48Z" fill="#133266"/>
<path d="M659.76 1225.02L684.71 1213.7L561.51 1000.23L530.06 1000.29L659.76 1225.02Z" fill="#133266"/>
<path d="M610.1 1247.56L635.05 1236.24L498.91 1000.35L467.46 1000.42L610.1 1247.56Z" fill="#133266"/>
<path d="M560.43 1270.1L585.38 1258.78L436.31 1000.48L404.86 1000.54L560.43 1270.1Z" fill="#133266"/>
<path d="M510.77 1292.64L535.72 1281.32L373.71 1000.6L342.26 1000.66L510.77 1292.64Z" fill="#133266"/>
<path d="M461.1 1315.18L486.05 1303.86L311.11 1000.73L279.66 1000.79L461.1 1315.18Z" fill="#133266"/>
<path d="M411.44 1337.72L436.39 1326.4L248.51 1000.85L217.06 1000.91L411.44 1337.72Z" fill="#133266"/>
<path d="M361.77 1360.26L386.73 1348.93L185.91 1000.97L154.46 1001.04L361.77 1360.26Z" fill="#133266"/>
<path d="M312.11 1382.8L337.06 1371.47L123.31 1001.1L91.8599 1001.16L312.11 1382.8Z" fill="#133266"/>
<path d="M592.02 1999L623.47 1998.94L305.97 1448.79L293.27 1481.36L592.02 1999Z" fill="#133266"/>
<path d="M529.42 1999.13L560.87 1999.07L280.7 1513.61L268.01 1546.17L529.42 1999.13Z" fill="#133266"/>
<path d="M466.82 1999.25L498.27 1999.19L255.44 1578.43L242.74 1610.99L466.82 1999.25Z" fill="#133266"/>
<path d="M404.22 1999.38L435.67 1999.32L230.17 1643.25L217.48 1675.81L404.22 1999.38Z" fill="#133266"/>
<path d="M341.62 1999.5L373.07 1999.44L204.91 1708.06L192.22 1740.63L341.62 1999.5Z" fill="#133266"/>
<path d="M279.02 1999.63L310.47 1999.56L179.64 1772.88L166.95 1805.45L279.02 1999.63Z" fill="#133266"/>
<path d="M216.42 1999.75L247.87 1999.69L154.38 1837.7L141.69 1870.26L216.42 1999.75Z" fill="#133266"/>
<path d="M153.82 1999.87L185.27 1999.81L129.12 1902.52L116.42 1935.08L153.82 1999.87Z" fill="#133266"/>
<path d="M91.2199 2000L122.67 1999.94L103.85 1967.34L91.1599 1999.9L91.2199 2000Z" fill="#133266"/>
<path d="M319.32 1401.07L361.69 1411.39L1000.41 1113.1L1000.45 1082.98L319.32 1401.07Z" fill="#133266"/>
<path d="M404.72 1421.86L447.1 1432.18L1000.32 1173.81L1000.37 1143.69L404.72 1421.86Z" fill="#133266"/>
<path d="M490.12 1442.65L532.5 1452.96L1000.24 1234.52L1000.28 1204.4L490.12 1442.65Z" fill="#133266"/>
<path d="M575.53 1463.44L617.9 1473.75L1000.16 1295.23L1000.2 1265.11L575.53 1463.44Z" fill="#133266"/>
<path d="M660.93 1484.22L703.3 1494.54L1000.08 1355.94L1000.12 1325.82L660.93 1484.22Z" fill="#133266"/>
<path d="M746.33 1505.01L788.71 1515.33L1000 1416.65L1000.04 1386.53L746.33 1505.01Z" fill="#133266"/>
<path d="M831.73 1525.8L874.11 1536.11L999.91 1477.36L999.95 1447.24L831.73 1525.8Z" fill="#133266"/>
<path d="M917.14 1546.59L959.51 1556.9L999.83 1538.07L999.87 1507.95L917.14 1546.59Z" fill="#133266"/>
<path d="M0.620078 1082.98L0.580078 1113.1L122.66 1056.09L109 1032.37L0.620078 1082.98Z" fill="#133266"/>
<path d="M0.52999 1143.69L0.48999 1173.81L150.19 1103.91L136.53 1080.18L0.52999 1143.69Z" fill="#133266"/>
<path d="M0.449912 1204.4L0.409912 1234.52L177.71 1151.72L164.05 1128L0.449912 1204.4Z" fill="#133266"/>
<path d="M0.370078 1265.11L0.330078 1295.23L205.24 1199.54L191.58 1175.81L0.370078 1265.11Z" fill="#133266"/>
<path d="M0.29 1325.82L0.25 1355.94L232.77 1247.35L219.11 1223.63L0.29 1325.82Z" fill="#133266"/>
<path d="M0.209912 1386.53L0.159912 1416.65L260.29 1295.17L246.64 1271.44L0.209912 1386.53Z" fill="#133266"/>
<path d="M0.120078 1447.24L0.0800781 1477.36L287.82 1342.99L274.16 1319.26L0.120078 1447.24Z" fill="#133266"/>
<path d="M0.04 1507.95L0 1538.07L315.35 1390.8L301.69 1367.08L0.04 1507.95Z" fill="#133266"/>
<path d="M40.48 1999.04L69.76 1999.08L294.72 1425.58L259.37 1441L40.48 1999.04Z" fill="#133266"/>
<path d="M190.46 1471.06L0.530029 1955.24V1998.98L12.67 1999L225.8 1455.64L190.46 1471.06Z" fill="#133266"/>
<path d="M121.54 1501.12L0.52002 1809.63V1884.31L156.88 1485.7L121.54 1501.12Z" fill="#133266"/>
<path d="M52.62 1531.18L0.51001 1664.02V1738.7L87.96 1515.76L52.62 1531.18Z" fill="#133266"/>
<path d="M0.5 1553.91V1593.09L19.04 1545.82L0.5 1553.91Z" fill="#133266"/>
<path d="M0.31001 999.66L0.26001 1031.31L12.67 999.68L0.31001 999.66Z" fill="#133266"/>
<path d="M69.76 999.77L40.48 999.73L20.99 1049.41L55.92 1035.05L69.76 999.77Z" fill="#133266"/>
<path d="M999.6 1955.24L982.34 1999.25L999.38 1999.26V1998.98H999.6V1955.24Z" fill="#133266"/>
<path d="M999.59 1809.63L925.22 1999.21L954.52 1999.23L999.59 1884.31V1809.63Z" fill="#133266"/>
<path d="M999.58 1664.02L868.11 1999.17L897.4 1999.19L999.58 1738.7V1664.02Z" fill="#133266"/>
<path d="M999.57 1553.91L982.77 1561.24L811 1999.14L840.29 1999.15L999.57 1593.09V1553.91Z" fill="#133266"/>
<path d="M649.78 1992.04L678.14 1998.99L790.47 1998.53L790.5 1998.45L630.62 1958.95L649.78 1992.04Z" fill="#133266"/>
<path d="M951.3 1577.8L316.22 1414.61L335.39 1447.73L941.47 1603.44L951.3 1577.8Z" fill="#133266"/>
<path d="M931.08 1630.54L355.69 1482.78L374.87 1515.9L921.19 1656.32L931.08 1630.54Z" fill="#133266"/>
<path d="M911.07 1682.71L395.5 1549.8L406.78 1571.02L413.5 1582.62L901.24 1708.34L911.07 1682.71Z" fill="#133266"/>
<path d="M890.95 1735.16L437.23 1618.14L454.6 1650.79L880.95 1761.23L890.95 1735.16Z" fill="#133266"/>
<path d="M870.86 1787.54L472.7 1684.82L472.93 1685.25L491.85 1717.94L861.03 1813.18L870.86 1787.54Z" fill="#133266"/>
<path d="M850.78 1839.9L511.84 1752.46L531.02 1785.58L840.95 1865.54L850.78 1839.9Z" fill="#133266"/>
<path d="M830.7 1892.26L551.01 1820.1L570.19 1853.22L820.87 1917.89L830.7 1892.26Z" fill="#133266"/>
<path d="M609.98 1921.95L800.78 1970.3L810.61 1944.66L590.81 1888.84L609.98 1921.95Z" fill="#133266"/>
<path d="M790.81 999.74L678.14 1000.2L781.4 1025.51L791.26 999.85L790.81 999.74Z" fill="#133266"/>
<path d="M670.27 1028.43L689.46 1061.46L761.21 1078.07L771.09 1052.34L670.27 1028.43Z" fill="#133266"/>
<path d="M709.85 1096.55L728.72 1129.03L740.79 1131.23L750.81 1105.13L709.85 1096.55Z" fill="#133266"/>
<path d="M315.8 1414.5L324.48 1430.83L334.11 1447.4L335.39 1447.73L316.22 1414.61L315.8 1414.5Z" fill="#133266"/>
<path d="M354.5 1482.48L373.75 1515.61L374.87 1515.9L355.69 1482.78L354.5 1482.48Z" fill="#133266"/>
<path d="M412.86 1582.46L413.5 1582.62L406.78 1571.02L412.86 1582.46Z" fill="#133266"/>
<path d="M479.37 1697.36L491.23 1717.77L491.85 1717.94L472.93 1685.25L479.37 1697.36Z" fill="#133266"/>
<path d="M511.3 1752.32L530.56 1785.46L531.02 1785.58L511.84 1752.46L511.3 1752.32Z" fill="#133266"/>
<path d="M550.64 1820.01L569.89 1853.14L570.19 1853.22L551.01 1820.1L550.64 1820.01Z" fill="#133266"/>
<path d="M590.61 1888.79L609.86 1921.92L609.98 1921.95L590.81 1888.84L590.61 1888.79Z" fill="#133266"/>
<path d="M790.47 1997.18H790.81L790.5 1997.1L790.47 1997.18Z" fill="#133266"/>
<path d="M985.81 1065.88L999.51 1030.98L999.55 999.62L982.51 999.61L950.53 1081.13L985.81 1065.88Z" fill="#133266"/>
<path d="M954.69 999.59L925.4 999.57L881.74 1110.87L917.02 1095.62L954.69 999.59Z" fill="#133266"/>
<path d="M812.95 1140.6L848.23 1125.35L897.58 999.55L868.29 999.54L812.95 1140.6Z" fill="#133266"/>
<path d="M819.56 999.5H811.17L754.89 1142.98L744.16 1170.34L779.44 1155.09L840.46 999.52L819.56 999.5Z" fill="#133266"/>
<path d="M709.42 202.98L734.37 191.66L624.11 0.609985L592.66 0.669985L709.42 202.98Z" fill="#133266"/>
<path d="M659.76 225.52L684.71 214.2L561.51 0.72998L530.06 0.78998L659.76 225.52Z" fill="#133266"/>
<path d="M610.1 248.06L635.05 236.74L498.91 0.849976L467.46 0.919976L610.1 248.06Z" fill="#133266"/>
<path d="M560.43 270.6L585.38 259.28L436.31 0.97998L404.86 1.03998L560.43 270.6Z" fill="#133266"/>
<path d="M510.77 293.14L535.72 281.82L373.71 1.09998L342.26 1.16998L510.77 293.14Z" fill="#133266"/>
<path d="M461.1 315.68L486.05 304.36L311.11 1.22998L279.66 1.28998L461.1 315.68Z" fill="#133266"/>
<path d="M411.44 338.22L436.39 326.9L248.51 1.34998L217.06 1.40998L411.44 338.22Z" fill="#133266"/>
<path d="M361.77 360.76L386.73 349.44L185.91 1.47998L154.46 1.53998L361.77 360.76Z" fill="#133266"/>
<path d="M312.11 383.3L337.06 371.98L123.31 1.59998L91.8599 1.65998L312.11 383.3Z" fill="#133266"/>
<path d="M592.02 999.51L623.47 999.44L305.97 449.29L293.27 481.86L592.02 999.51Z" fill="#133266"/>
<path d="M529.42 999.63L560.87 999.57L280.7 514.11L268.01 546.67L529.42 999.63Z" fill="#133266"/>
<path d="M466.82 999.75L498.27 999.69L255.44 578.93L242.74 611.49L466.82 999.75Z" fill="#133266"/>
<path d="M404.22 999.88L435.67 999.82L230.17 643.75L217.48 676.31L404.22 999.88Z" fill="#133266"/>
<path d="M341.62 1000L373.07 999.94L204.91 708.56L192.22 741.13L341.62 1000Z" fill="#133266"/>
<path d="M279.02 1000.13L310.47 1000.06L179.64 773.38L166.95 805.95L279.02 1000.13Z" fill="#133266"/>
<path d="M216.42 1000.25L247.87 1000.19L154.38 838.2L141.69 870.76L216.42 1000.25Z" fill="#133266"/>
<path d="M153.82 1000.38L185.27 1000.31L129.12 903.02L116.42 935.58L153.82 1000.38Z" fill="#133266"/>
<path d="M91.2199 1000.5L122.67 1000.44L103.85 967.84L91.1599 1000.4L91.2199 1000.5Z" fill="#133266"/>
<path d="M319.32 401.57L361.69 411.89L1000.41 113.61L1000.45 83.48L319.32 401.57Z" fill="#133266"/>
<path d="M404.72 422.36L447.1 432.68L1000.32 174.31L1000.37 144.19L404.72 422.36Z" fill="#133266"/>
<path d="M490.12 443.15L532.5 453.46L1000.24 235.02L1000.28 204.9L490.12 443.15Z" fill="#133266"/>
<path d="M575.53 463.94L617.9 474.25L1000.16 295.73L1000.2 265.61L575.53 463.94Z" fill="#133266"/>
<path d="M660.93 484.72L703.3 495.04L1000.08 356.44L1000.12 326.32L660.93 484.72Z" fill="#133266"/>
<path d="M746.33 505.51L788.71 515.83L1000 417.15L1000.04 387.03L746.33 505.51Z" fill="#133266"/>
<path d="M831.73 526.3L874.11 536.61L999.91 477.86L999.95 447.74L831.73 526.3Z" fill="#133266"/>
<path d="M917.14 547.09L959.51 557.4L999.83 538.57L999.87 508.45L917.14 547.09Z" fill="#133266"/>
<path d="M0.620078 83.48L0.580078 113.61L122.66 56.59L109 32.87L0.620078 83.48Z" fill="#133266"/>
<path d="M0.52999 144.19L0.48999 174.31L150.19 104.41L136.53 80.6801L0.52999 144.19Z" fill="#133266"/>
<path d="M0.449912 204.9L0.409912 235.02L177.71 152.22L164.05 128.5L0.449912 204.9Z" fill="#133266"/>
<path d="M0.370078 265.61L0.330078 295.73L205.24 200.04L191.58 176.31L0.370078 265.61Z" fill="#133266"/>
<path d="M0.29 326.32L0.25 356.44L232.77 247.86L219.11 224.13L0.29 326.32Z" fill="#133266"/>
<path d="M0.209912 387.03L0.159912 417.15L260.29 295.67L246.64 271.95L0.209912 387.03Z" fill="#133266"/>
<path d="M0.120078 447.74L0.0800781 477.86L287.82 343.49L274.16 319.76L0.120078 447.74Z" fill="#133266"/>
<path d="M0.04 508.45L0 538.57L315.35 391.3L301.69 367.58L0.04 508.45Z" fill="#133266"/>
<path d="M40.48 999.54L69.76 999.59L294.72 426.08L259.37 441.5L40.48 999.54Z" fill="#133266"/>
<path d="M190.46 471.56L0.530029 955.74V999.48L12.67 999.5L225.8 456.14L190.46 471.56Z" fill="#133266"/>
<path d="M121.54 501.62L0.52002 810.13V884.81L156.88 486.2L121.54 501.62Z" fill="#133266"/>
<path d="M52.62 531.68L0.51001 664.52V739.2L87.96 516.26L52.62 531.68Z" fill="#133266"/>
<path d="M0.5 554.41V593.59L19.04 546.32L0.5 554.41Z" fill="#133266"/>
<path d="M0.31001 0.170044L0.26001 31.81L12.67 0.180044L0.31001 0.170044Z" fill="#133266"/>
<path d="M69.76 0.26998L40.48 0.22998L20.99 49.91L55.92 35.55L69.76 0.26998Z" fill="#133266"/>
<path d="M999.6 955.74L982.34 999.75L999.38 999.76V999.48H999.6V955.74Z" fill="#133266"/>
<path d="M999.59 810.13L925.22 999.71L954.52 999.73L999.59 884.81V810.13Z" fill="#133266"/>
<path d="M999.58 664.52L868.11 999.67L897.4 999.69L999.58 739.2V664.52Z" fill="#133266"/>
<path d="M999.57 554.41L982.77 561.74L811 999.64L840.29 999.66L999.57 593.59V554.41Z" fill="#133266"/>
<path d="M649.78 992.54L678.14 999.49L790.47 999.03L790.5 998.95L630.62 959.45L649.78 992.54Z" fill="#133266"/>
<path d="M951.3 578.3L316.22 415.11L335.39 448.23L941.47 603.94L951.3 578.3Z" fill="#133266"/>
<path d="M931.08 631.04L355.69 483.28L374.87 516.4L921.19 656.82L931.08 631.04Z" fill="#133266"/>
<path d="M911.07 683.21L395.5 550.31L406.78 571.52L413.5 583.12L901.24 708.84L911.07 683.21Z" fill="#133266"/>
<path d="M890.95 735.66L437.23 618.64L454.6 651.29L880.95 761.73L890.95 735.66Z" fill="#133266"/>
<path d="M870.86 788.04L472.7 685.32L472.93 685.75L491.85 718.44L861.03 813.68L870.86 788.04Z" fill="#133266"/>
<path d="M850.78 840.4L511.84 752.96L531.02 786.08L840.95 866.04L850.78 840.4Z" fill="#133266"/>
<path d="M830.7 892.76L551.01 820.6L570.19 853.72L820.87 918.39L830.7 892.76Z" fill="#133266"/>
<path d="M609.98 922.45L800.78 970.8L810.61 945.16L590.81 889.34L609.98 922.45Z" fill="#133266"/>
<path d="M790.81 0.23999L678.14 0.69999L781.4 26.01L791.26 0.34999L790.81 0.23999Z" fill="#133266"/>
<path d="M670.27 28.9399L689.46 61.9599L761.21 78.5699L771.09 52.8399L670.27 28.9399Z" fill="#133266"/>
<path d="M709.85 97.05L728.72 129.53L740.79 131.73L750.81 105.63L709.85 97.05Z" fill="#133266"/>
<path d="M315.8 415L324.48 431.33L334.11 447.9L335.39 448.23L316.22 415.11L315.8 415Z" fill="#133266"/>
<path d="M354.5 482.98L373.75 516.11L374.87 516.4L355.69 483.28L354.5 482.98Z" fill="#133266"/>
<path d="M412.86 582.96L413.5 583.12L406.78 571.52L412.86 582.96Z" fill="#133266"/>
<path d="M479.37 697.86L491.23 718.28L491.85 718.44L472.93 685.75L479.37 697.86Z" fill="#133266"/>
<path d="M511.3 752.82L530.56 785.96L531.02 786.08L511.84 752.96L511.3 752.82Z" fill="#133266"/>
<path d="M550.64 820.51L569.89 853.65L570.19 853.72L551.01 820.6L550.64 820.51Z" fill="#133266"/>
<path d="M590.61 889.29L609.86 922.42L609.98 922.45L590.81 889.34L590.61 889.29Z" fill="#133266"/>
<path d="M790.47 997.68H790.81L790.5 997.6L790.47 997.68Z" fill="#133266"/>
<path d="M985.81 66.38L999.51 31.48L999.55 0.119985L982.51 0.109985L950.53 81.63L985.81 66.38Z" fill="#133266"/>
<path d="M954.69 0.0899463L925.4 0.0699463L881.74 111.37L917.02 96.1199L954.69 0.0899463Z" fill="#133266"/>
<path d="M812.95 141.1L848.23 125.85L897.58 0.0600391L868.29 0.0400391L812.95 141.1Z" fill="#133266"/>
<path d="M819.56 0H811.17L754.89 143.48L744.16 170.84L779.44 155.59L840.46 0.02L819.56 0Z" fill="#133266"/>
<path d="M1708.98 1202.48L1733.93 1191.16L1623.67 1000.1L1592.22 1000.17L1708.98 1202.48Z" fill="#133266"/>
<path d="M1659.31 1225.02L1684.26 1213.7L1561.07 1000.23L1529.61 1000.29L1659.31 1225.02Z" fill="#133266"/>
<path d="M1609.65 1247.56L1634.6 1236.24L1498.46 1000.35L1467.01 1000.42L1609.65 1247.56Z" fill="#133266"/>
<path d="M1559.98 1270.1L1584.93 1258.78L1435.86 1000.48L1404.41 1000.54L1559.98 1270.1Z" fill="#133266"/>
<path d="M1510.32 1292.64L1535.27 1281.32L1373.26 1000.6L1341.81 1000.66L1510.32 1292.64Z" fill="#133266"/>
<path d="M1460.65 1315.18L1485.61 1303.86L1310.66 1000.73L1279.21 1000.79L1460.65 1315.18Z" fill="#133266"/>
<path d="M1410.99 1337.72L1435.94 1326.4L1248.06 1000.85L1216.61 1000.91L1410.99 1337.72Z" fill="#133266"/>
<path d="M1361.33 1360.26L1386.28 1348.93L1185.46 1000.97L1154.01 1001.04L1361.33 1360.26Z" fill="#133266"/>
<path d="M1311.66 1382.8L1336.61 1371.47L1122.86 1001.1L1091.41 1001.16L1311.66 1382.8Z" fill="#133266"/>
<path d="M1591.57 1999L1623.02 1998.94L1305.52 1448.79L1292.83 1481.36L1591.57 1999Z" fill="#133266"/>
<path d="M1528.97 1999.13L1560.42 1999.07L1280.25 1513.61L1267.56 1546.17L1528.97 1999.13Z" fill="#133266"/>
<path d="M1466.37 1999.25L1497.82 1999.19L1254.99 1578.43L1242.3 1610.99L1466.37 1999.25Z" fill="#133266"/>
<path d="M1403.77 1999.38L1435.22 1999.32L1229.72 1643.25L1217.03 1675.81L1403.77 1999.38Z" fill="#133266"/>
<path d="M1341.17 1999.5L1372.62 1999.44L1204.46 1708.06L1191.77 1740.63L1341.17 1999.5Z" fill="#133266"/>
<path d="M1278.57 1999.63L1310.02 1999.56L1179.2 1772.88L1166.5 1805.45L1278.57 1999.63Z" fill="#133266"/>
<path d="M1215.97 1999.75L1247.42 1999.69L1153.93 1837.7L1141.24 1870.26L1215.97 1999.75Z" fill="#133266"/>
<path d="M1153.37 1999.87L1184.82 1999.81L1128.67 1902.52L1115.98 1935.08L1153.37 1999.87Z" fill="#133266"/>
<path d="M1090.77 2000L1122.22 1999.94L1103.4 1967.34L1090.71 1999.9L1090.77 2000Z" fill="#133266"/>
<path d="M1318.87 1401.07L1361.25 1411.39L1999.96 1113.1L2000 1082.98L1318.87 1401.07Z" fill="#133266"/>
<path d="M1404.27 1421.86L1446.65 1432.18L1999.88 1173.81L1999.92 1143.69L1404.27 1421.86Z" fill="#133266"/>
<path d="M1489.68 1442.65L1532.05 1452.96L1999.79 1234.52L1999.84 1204.4L1489.68 1442.65Z" fill="#133266"/>
<path d="M1575.08 1463.44L1617.45 1473.75L1999.71 1295.23L1999.75 1265.11L1575.08 1463.44Z" fill="#133266"/>
<path d="M1660.48 1484.22L1702.86 1494.54L1999.63 1355.94L1999.67 1325.82L1660.48 1484.22Z" fill="#133266"/>
<path d="M1745.88 1505.01L1788.26 1515.33L1999.55 1416.65L1999.59 1386.53L1745.88 1505.01Z" fill="#133266"/>
<path d="M1831.29 1525.8L1873.66 1536.11L1999.46 1477.36L1999.51 1447.24L1831.29 1525.8Z" fill="#133266"/>
<path d="M1916.69 1546.59L1959.07 1556.9L1999.38 1538.07L1999.42 1507.95L1916.69 1546.59Z" fill="#133266"/>
<path d="M1000.17 1082.98L1000.13 1113.1L1122.21 1056.09L1108.55 1032.37L1000.17 1082.98Z" fill="#133266"/>
<path d="M1000.09 1143.69L1000.05 1173.81L1149.74 1103.91L1136.08 1080.18L1000.09 1143.69Z" fill="#133266"/>
<path d="M1000 1204.4L999.96 1234.52L1177.26 1151.72L1163.61 1128L1000 1204.4Z" fill="#133266"/>
<path d="M999.92 1265.11L999.88 1295.23L1204.79 1199.54L1191.13 1175.81L999.92 1265.11Z" fill="#133266"/>
<path d="M999.84 1325.82L999.8 1355.94L1232.32 1247.35L1218.66 1223.63L999.84 1325.82Z" fill="#133266"/>
<path d="M999.76 1386.53L999.72 1416.65L1259.85 1295.17L1246.19 1271.44L999.76 1386.53Z" fill="#133266"/>
<path d="M999.68 1447.24L999.63 1477.36L1287.37 1342.99L1273.71 1319.26L999.68 1447.24Z" fill="#133266"/>
<path d="M999.59 1507.95L999.55 1538.07L1314.9 1390.8L1301.24 1367.08L999.59 1507.95Z" fill="#133266"/>
<path d="M1040.03 1999.04L1069.31 1999.08L1294.27 1425.58L1258.93 1441L1040.03 1999.04Z" fill="#133266"/>
<path d="M1190.01 1471.06L1000.08 1955.24L1000.09 1998.98L1012.22 1999L1225.35 1455.64L1190.01 1471.06Z" fill="#133266"/>
<path d="M1121.09 1501.12L1000.07 1809.63L1000.08 1884.31L1156.44 1485.7L1121.09 1501.12Z" fill="#133266"/>
<path d="M1052.17 1531.18L1000.06 1664.02L1000.07 1738.7L1087.52 1515.76L1052.17 1531.18Z" fill="#133266"/>
<path d="M1000.05 1553.91L1000.06 1593.09L1018.6 1545.82L1000.05 1553.91Z" fill="#133266"/>
<path d="M999.86 999.66L999.82 1031.31L1012.22 999.68L999.86 999.66Z" fill="#133266"/>
<path d="M1069.31 999.77L1040.03 999.73L1020.54 1049.41L1055.47 1035.05L1069.31 999.77Z" fill="#133266"/>
<path d="M1999.15 1955.24L1981.89 1999.25L1998.93 1999.26V1998.98H1999.15V1955.24Z" fill="#133266"/>
<path d="M1999.14 1809.63L1924.78 1999.21L1954.07 1999.23L1999.14 1884.31V1809.63Z" fill="#133266"/>
<path d="M1999.13 1664.02L1867.66 1999.17L1896.95 1999.19L1999.13 1738.7V1664.02Z" fill="#133266"/>
<path d="M1999.12 1553.91L1982.32 1561.24L1810.55 1999.14L1839.84 1999.15L1999.12 1593.09V1553.91Z" fill="#133266"/>
<path d="M1649.33 1992.04L1677.7 1998.99L1790.02 1998.53L1790.05 1998.45L1630.18 1958.95L1649.33 1992.04Z" fill="#133266"/>
<path d="M1950.85 1577.8L1315.77 1414.61L1334.94 1447.73L1941.02 1603.44L1950.85 1577.8Z" fill="#133266"/>
<path d="M1930.63 1630.54L1355.24 1482.78L1374.42 1515.9L1920.74 1656.32L1930.63 1630.54Z" fill="#133266"/>
<path d="M1910.62 1682.71L1395.05 1549.8L1406.33 1571.02L1413.05 1582.62L1900.79 1708.34L1910.62 1682.71Z" fill="#133266"/>
<path d="M1890.5 1735.16L1436.79 1618.14L1454.15 1650.79L1880.51 1761.23L1890.5 1735.16Z" fill="#133266"/>
<path d="M1870.42 1787.54L1472.25 1684.82L1472.48 1685.25L1491.4 1717.94L1860.58 1813.18L1870.42 1787.54Z" fill="#133266"/>
<path d="M1850.34 1839.9L1511.39 1752.46L1530.57 1785.58L1840.51 1865.54L1850.34 1839.9Z" fill="#133266"/>
<path d="M1830.26 1892.26L1550.56 1820.1L1569.74 1853.22L1820.43 1917.89L1830.26 1892.26Z" fill="#133266"/>
<path d="M1609.54 1921.95L1800.33 1970.3L1810.16 1944.66L1590.36 1888.84L1609.54 1921.95Z" fill="#133266"/>
<path d="M1790.36 999.74L1677.7 1000.2L1780.95 1025.51L1790.81 999.85L1790.36 999.74Z" fill="#133266"/>
<path d="M1669.82 1028.43L1689.01 1061.46L1760.76 1078.07L1770.65 1052.34L1669.82 1028.43Z" fill="#133266"/>
<path d="M1709.4 1096.55L1728.28 1129.03L1740.34 1131.23L1750.37 1105.13L1709.4 1096.55Z" fill="#133266"/>
<path d="M1315.35 1414.5L1324.03 1430.83L1333.66 1447.4L1334.94 1447.73L1315.77 1414.61L1315.35 1414.5Z" fill="#133266"/>
<path d="M1354.05 1482.48L1373.3 1515.61L1374.42 1515.9L1355.24 1482.78L1354.05 1482.48Z" fill="#133266"/>
<path d="M1412.42 1582.46L1413.05 1582.62L1406.33 1571.02L1412.42 1582.46Z" fill="#133266"/>
<path d="M1478.92 1697.36L1490.78 1717.77L1491.4 1717.94L1472.48 1685.25L1478.92 1697.36Z" fill="#133266"/>
<path d="M1510.86 1752.32L1530.11 1785.46L1530.57 1785.58L1511.39 1752.46L1510.86 1752.32Z" fill="#133266"/>
<path d="M1550.19 1820.01L1569.45 1853.14L1569.74 1853.22L1550.56 1820.1L1550.19 1820.01Z" fill="#133266"/>
<path d="M1590.16 1888.79L1609.41 1921.92L1609.54 1921.95L1590.36 1888.84L1590.16 1888.79Z" fill="#133266"/>
<path d="M1790.02 1997.18H1790.36L1790.05 1997.1L1790.02 1997.18Z" fill="#133266"/>
<path d="M1985.37 1065.88L1999.06 1030.98L1999.1 999.62L1982.06 999.61L1950.09 1081.13L1985.37 1065.88Z" fill="#133266"/>
<path d="M1954.24 999.59L1924.95 999.57L1881.29 1110.87L1916.58 1095.62L1954.24 999.59Z" fill="#133266"/>
<path d="M1812.5 1140.6L1847.78 1125.35L1897.13 999.55L1867.84 999.54L1812.5 1140.6Z" fill="#133266"/>
<path d="M1819.11 999.5H1810.72L1754.44 1142.98L1743.71 1170.34L1778.99 1155.09L1840.02 999.52L1819.11 999.5Z" fill="#133266"/>
<path d="M1708.98 202.98L1733.93 191.66L1623.67 0.609985L1592.22 0.669985L1708.98 202.98Z" fill="#133266"/>
<path d="M1659.31 225.52L1684.26 214.2L1561.07 0.72998L1529.61 0.78998L1659.31 225.52Z" fill="#133266"/>
<path d="M1609.65 248.06L1634.6 236.74L1498.46 0.849976L1467.01 0.919976L1609.65 248.06Z" fill="#133266"/>
<path d="M1559.98 270.6L1584.93 259.28L1435.86 0.97998L1404.41 1.03998L1559.98 270.6Z" fill="#133266"/>
<path d="M1510.32 293.14L1535.27 281.82L1373.26 1.09998L1341.81 1.16998L1510.32 293.14Z" fill="#133266"/>
<path d="M1460.65 315.68L1485.61 304.36L1310.66 1.22998L1279.21 1.28998L1460.65 315.68Z" fill="#133266"/>
<path d="M1410.99 338.22L1435.94 326.9L1248.06 1.34998L1216.61 1.40998L1410.99 338.22Z" fill="#133266"/>
<path d="M1361.33 360.76L1386.28 349.44L1185.46 1.47998L1154.01 1.53998L1361.33 360.76Z" fill="#133266"/>
<path d="M1311.66 383.3L1336.61 371.98L1122.86 1.59998L1091.41 1.65998L1311.66 383.3Z" fill="#133266"/>
<path d="M1591.57 999.51L1623.02 999.44L1305.52 449.29L1292.83 481.86L1591.57 999.51Z" fill="#133266"/>
<path d="M1528.97 999.63L1560.42 999.57L1280.25 514.11L1267.56 546.67L1528.97 999.63Z" fill="#133266"/>
<path d="M1466.37 999.75L1497.82 999.69L1254.99 578.93L1242.3 611.49L1466.37 999.75Z" fill="#133266"/>
<path d="M1403.77 999.88L1435.22 999.82L1229.72 643.75L1217.03 676.31L1403.77 999.88Z" fill="#133266"/>
<path d="M1341.17 1000L1372.62 999.94L1204.46 708.56L1191.77 741.13L1341.17 1000Z" fill="#133266"/>
<path d="M1278.57 1000.13L1310.02 1000.06L1179.2 773.38L1166.5 805.95L1278.57 1000.13Z" fill="#133266"/>
<path d="M1215.97 1000.25L1247.42 1000.19L1153.93 838.2L1141.24 870.76L1215.97 1000.25Z" fill="#133266"/>
<path d="M1153.37 1000.38L1184.82 1000.31L1128.67 903.02L1115.98 935.58L1153.37 1000.38Z" fill="#133266"/>
<path d="M1090.77 1000.5L1122.22 1000.44L1103.4 967.84L1090.71 1000.4L1090.77 1000.5Z" fill="#133266"/>
<path d="M1318.87 401.57L1361.25 411.89L1999.96 113.61L2000 83.48L1318.87 401.57Z" fill="#133266"/>
<path d="M1404.27 422.36L1446.65 432.68L1999.88 174.31L1999.92 144.19L1404.27 422.36Z" fill="#133266"/>
<path d="M1489.68 443.15L1532.05 453.46L1999.79 235.02L1999.84 204.9L1489.68 443.15Z" fill="#133266"/>
<path d="M1575.08 463.94L1617.45 474.25L1999.71 295.73L1999.75 265.61L1575.08 463.94Z" fill="#133266"/>
<path d="M1660.48 484.72L1702.86 495.04L1999.63 356.44L1999.67 326.32L1660.48 484.72Z" fill="#133266"/>
<path d="M1745.88 505.51L1788.26 515.83L1999.55 417.15L1999.59 387.03L1745.88 505.51Z" fill="#133266"/>
<path d="M1831.29 526.3L1873.66 536.61L1999.46 477.86L1999.51 447.74L1831.29 526.3Z" fill="#133266"/>
<path d="M1916.69 547.09L1959.07 557.4L1999.38 538.57L1999.42 508.45L1916.69 547.09Z" fill="#133266"/>
<path d="M1000.17 83.48L1000.13 113.61L1122.21 56.59L1108.55 32.87L1000.17 83.48Z" fill="#133266"/>
<path d="M1000.09 144.19L1000.05 174.31L1149.74 104.41L1136.08 80.6801L1000.09 144.19Z" fill="#133266"/>
<path d="M1000 204.9L999.96 235.02L1177.26 152.22L1163.61 128.5L1000 204.9Z" fill="#133266"/>
<path d="M999.92 265.61L999.88 295.73L1204.79 200.04L1191.13 176.31L999.92 265.61Z" fill="#133266"/>
<path d="M999.84 326.32L999.8 356.44L1232.32 247.86L1218.66 224.13L999.84 326.32Z" fill="#133266"/>
<path d="M999.76 387.03L999.72 417.15L1259.85 295.67L1246.19 271.95L999.76 387.03Z" fill="#133266"/>
<path d="M999.68 447.74L999.63 477.86L1287.37 343.49L1273.71 319.76L999.68 447.74Z" fill="#133266"/>
<path d="M999.59 508.45L999.55 538.57L1314.9 391.3L1301.24 367.58L999.59 508.45Z" fill="#133266"/>
<path d="M1040.03 999.54L1069.31 999.59L1294.27 426.08L1258.93 441.5L1040.03 999.54Z" fill="#133266"/>
<path d="M1190.01 471.56L1000.08 955.74L1000.09 999.48L1012.22 999.5L1225.35 456.14L1190.01 471.56Z" fill="#133266"/>
<path d="M1121.09 501.62L1000.07 810.13L1000.08 884.81L1156.44 486.2L1121.09 501.62Z" fill="#133266"/>
<path d="M1052.17 531.68L1000.06 664.52L1000.07 739.2L1087.52 516.26L1052.17 531.68Z" fill="#133266"/>
<path d="M1000.05 554.41L1000.06 593.59L1018.6 546.32L1000.05 554.41Z" fill="#133266"/>
<path d="M999.86 0.170044L999.82 31.81L1012.22 0.180044L999.86 0.170044Z" fill="#133266"/>
<path d="M1069.31 0.26998L1040.03 0.22998L1020.54 49.91L1055.47 35.55L1069.31 0.26998Z" fill="#133266"/>
<path d="M1999.15 955.74L1981.89 999.75L1998.93 999.76V999.48H1999.15V955.74Z" fill="#133266"/>
<path d="M1999.14 810.13L1924.78 999.71L1954.07 999.73L1999.14 884.81V810.13Z" fill="#133266"/>
<path d="M1999.13 664.52L1867.66 999.67L1896.95 999.69L1999.13 739.2V664.52Z" fill="#133266"/>
<path d="M1999.12 554.41L1982.32 561.74L1810.55 999.64L1839.84 999.66L1999.12 593.59V554.41Z" fill="#133266"/>
<path d="M1649.33 992.54L1677.7 999.49L1790.02 999.03L1790.05 998.95L1630.18 959.45L1649.33 992.54Z" fill="#133266"/>
<path d="M1950.85 578.3L1315.77 415.11L1334.94 448.23L1941.02 603.94L1950.85 578.3Z" fill="#133266"/>
<path d="M1930.63 631.04L1355.24 483.28L1374.42 516.4L1920.74 656.82L1930.63 631.04Z" fill="#133266"/>
<path d="M1910.62 683.21L1395.05 550.31L1406.33 571.52L1413.05 583.12L1900.79 708.84L1910.62 683.21Z" fill="#133266"/>
<path d="M1890.5 735.66L1436.79 618.64L1454.15 651.29L1880.51 761.73L1890.5 735.66Z" fill="#133266"/>
<path d="M1870.42 788.04L1472.25 685.32L1472.48 685.75L1491.4 718.44L1860.58 813.68L1870.42 788.04Z" fill="#133266"/>
<path d="M1850.34 840.4L1511.39 752.96L1530.57 786.08L1840.51 866.04L1850.34 840.4Z" fill="#133266"/>
<path d="M1830.26 892.76L1550.56 820.6L1569.74 853.72L1820.43 918.39L1830.26 892.76Z" fill="#133266"/>
<path d="M1609.54 922.45L1800.33 970.8L1810.16 945.16L1590.36 889.34L1609.54 922.45Z" fill="#133266"/>
<path d="M1790.36 0.23999L1677.7 0.69999L1780.95 26.01L1790.81 0.34999L1790.36 0.23999Z" fill="#133266"/>
<path d="M1669.82 28.9399L1689.01 61.9599L1760.76 78.5699L1770.65 52.8399L1669.82 28.9399Z" fill="#133266"/>
<path d="M1709.4 97.05L1728.28 129.53L1740.34 131.73L1750.37 105.63L1709.4 97.05Z" fill="#133266"/>
<path d="M1315.35 415L1324.03 431.33L1333.66 447.9L1334.94 448.23L1315.77 415.11L1315.35 415Z" fill="#133266"/>
<path d="M1354.05 482.98L1373.3 516.11L1374.42 516.4L1355.24 483.28L1354.05 482.98Z" fill="#133266"/>
<path d="M1412.42 582.96L1413.05 583.12L1406.33 571.52L1412.42 582.96Z" fill="#133266"/>
<path d="M1478.92 697.86L1490.78 718.28L1491.4 718.44L1472.48 685.75L1478.92 697.86Z" fill="#133266"/>
<path d="M1510.86 752.82L1530.11 785.96L1530.57 786.08L1511.39 752.96L1510.86 752.82Z" fill="#133266"/>
<path d="M1550.19 820.51L1569.45 853.65L1569.74 853.72L1550.56 820.6L1550.19 820.51Z" fill="#133266"/>
<path d="M1590.16 889.29L1609.41 922.42L1609.54 922.45L1590.36 889.34L1590.16 889.29Z" fill="#133266"/>
<path d="M1790.02 997.68H1790.36L1790.05 997.6L1790.02 997.68Z" fill="#133266"/>
<path d="M1985.37 66.38L1999.06 31.48L1999.1 0.119985L1982.06 0.109985L1950.09 81.63L1985.37 66.38Z" fill="#133266"/>
<path d="M1954.24 0.0899463L1924.95 0.0699463L1881.29 111.37L1916.58 96.1199L1954.24 0.0899463Z" fill="#133266"/>
<path d="M1812.5 141.1L1847.78 125.85L1897.13 0.0600391L1867.84 0.0400391L1812.5 141.1Z" fill="#133266"/>
<path d="M1819.11 0H1810.72L1754.44 143.48L1743.71 170.84L1778.99 155.59L1840.02 0.02L1819.11 0Z" fill="#133266"/>
</svg>
