<svg width="16" height="16" viewBox="0 0 16 16" fill="none" xmlns="http://www.w3.org/2000/svg">
    <path fill-rule="evenodd" clip-rule="evenodd" d="M7.99998 2.33331C4.87531 2.33331 2.33331 4.87531 2.33331 7.99998C2.33331 11.1246 4.87531 13.6666 7.99998 13.6666C11.1246 13.6666 13.6666 11.1246 13.6666 7.99998C13.6666 4.87531 11.1246 2.33331 7.99998 2.33331ZM7.99998 14.6666C4.32398 14.6666 1.33331 11.676 1.33331 7.99998C1.33331 4.32398 4.32398 1.33331 7.99998 1.33331C11.676 1.33331 14.6666 4.32398 14.6666 7.99998C14.6666 11.676 11.676 14.6666 7.99998 14.6666Z" fill="#133266"/>
    <path fill-rule="evenodd" clip-rule="evenodd" d="M7.99999 9.86259C7.86733 9.86259 7.73933 9.80992 7.64599 9.71525L5.33199 7.39125C5.13666 7.19525 5.13799 6.87859 5.33333 6.68392C5.52933 6.48925 5.84599 6.48925 6.04066 6.68525L7.99999 8.65459L9.95999 6.68525C10.1547 6.48925 10.4713 6.48925 10.6673 6.68392C10.8627 6.87859 10.8633 7.19525 10.6687 7.39125L8.35399 9.71525C8.26066 9.80992 8.13266 9.86259 7.99999 9.86259Z" fill="#133266"/>
</svg>
