<svg width="32" height="32" viewBox="0 0 32 32" fill="none" xmlns="http://www.w3.org/2000/svg">
    <path d="M13.7735 22.1239H5.37256" stroke="white" stroke-width="2.5" stroke-linecap="round" stroke-linejoin="round"/>
    <path d="M17.5206 9.2005H25.9216" stroke="white" stroke-width="2.5" stroke-linecap="round" stroke-linejoin="round"/>
    <path fill-rule="evenodd" clip-rule="evenodd" d="M11.635 9.12834C11.635 7.4008 10.2241 6 8.48417 6C6.74419 6 5.33331 7.4008 5.33331 9.12834C5.33331 10.8559 6.74419 12.2567 8.48417 12.2567C10.2241 12.2567 11.635 10.8559 11.635 9.12834Z" stroke="white" stroke-width="2.5" stroke-linecap="round" stroke-linejoin="round"/>
    <path fill-rule="evenodd" clip-rule="evenodd" d="M26.6666 22.0717C26.6666 20.3441 25.2569 18.9433 23.5169 18.9433C21.7758 18.9433 20.3649 20.3441 20.3649 22.0717C20.3649 23.7992 21.7758 25.2 23.5169 25.2C25.2569 25.2 26.6666 23.7992 26.6666 22.0717Z" stroke="white" stroke-width="2.5" stroke-linecap="round" stroke-linejoin="round"/>
</svg>
