<svg width="16" height="17" viewBox="0 0 16 17" fill="none" xmlns="http://www.w3.org/2000/svg">
    <mask id="mask0_124_352" style="mask-type:luminance" maskUnits="userSpaceOnUse" x="1" y="1" width="14" height="15">
        <path fill-rule="evenodd" clip-rule="evenodd" d="M1.33331 1.83331H14.6666V15.1666H1.33331V1.83331Z" fill="white"/>
    </mask>
    <g mask="url(#mask0_124_352)">
        <path fill-rule="evenodd" clip-rule="evenodd" d="M5.10931 2.83331C3.42331 2.83331 2.33331 3.98865 2.33331 5.77731V11.2226C2.33331 13.0113 3.42331 14.1666 5.10931 14.1666H10.888C12.576 14.1666 13.6666 13.0113 13.6666 11.2226V5.77731C13.6666 3.98865 12.576 2.83331 10.8893 2.83331H5.10931ZM10.888 15.1666H5.10931C2.85065 15.1666 1.33331 13.5813 1.33331 11.2226V5.77731C1.33331 3.41865 2.85065 1.83331 5.10931 1.83331H10.8893C13.1486 1.83331 14.6666 3.41865 14.6666 5.77731V11.2226C14.6666 13.5813 13.1486 15.1666 10.888 15.1666Z" fill="#133266"/>
    </g>
    <path fill-rule="evenodd" clip-rule="evenodd" d="M7.99597 11.6667C7.71997 11.6667 7.49597 11.4427 7.49597 11.1667V8.5C7.49597 8.224 7.71997 8 7.99597 8C8.27197 8 8.49597 8.224 8.49597 8.5V11.1667C8.49597 11.4427 8.27197 11.6667 7.99597 11.6667Z" fill="#133266"/>
    <path fill-rule="evenodd" clip-rule="evenodd" d="M7.99922 6.63607C7.63056 6.63607 7.32922 6.33807 7.32922 5.9694C7.32922 5.60073 7.62456 5.30273 7.99256 5.30273H7.99922C8.36789 5.30273 8.66589 5.60073 8.66589 5.9694C8.66589 6.33807 8.36789 6.63607 7.99922 6.63607Z" fill="#133266"/>
</svg>
