<svg width="16" height="17" viewBox="0 0 16 17" fill="none" xmlns="http://www.w3.org/2000/svg">
    <path fill-rule="evenodd" clip-rule="evenodd" d="M7.54622 15.1666H4.28889C2.65956 15.1666 1.33356 13.8406 1.33356 12.21V4.79065C1.33356 3.15998 2.65956 1.83331 4.28889 1.83331H7.53889C9.16956 1.83331 10.4962 3.15998 10.4962 4.79065V5.41198C10.4962 5.68798 10.2722 5.91198 9.99622 5.91198C9.72022 5.91198 9.49622 5.68798 9.49622 5.41198V4.79065C9.49622 3.71065 8.61822 2.83331 7.53889 2.83331H4.28889C3.21089 2.83331 2.33356 3.71065 2.33356 4.79065V12.21C2.33356 13.2893 3.21089 14.1666 4.28889 14.1666H7.54622C8.62089 14.1666 9.49622 13.292 9.49622 12.2173V11.5886C9.49622 11.3126 9.72022 11.0886 9.99622 11.0886C10.2722 11.0886 10.4962 11.3126 10.4962 11.5886V12.2173C10.4962 13.844 9.17222 15.1666 7.54622 15.1666Z" fill="#133266"/>
    <mask id="mask0_124_334" style="mask-type:luminance" maskUnits="userSpaceOnUse" x="5" y="8" width="11" height="1">
        <path fill-rule="evenodd" clip-rule="evenodd" d="M5.99744 8H15.0247V9H5.99744V8Z" fill="white"/>
    </mask>
    <g mask="url(#mask0_124_334)">
        <path fill-rule="evenodd" clip-rule="evenodd" d="M14.5248 9H6.49744C6.22144 9 5.99744 8.776 5.99744 8.5C5.99744 8.224 6.22144 8 6.49744 8H14.5248C14.8008 8 15.0248 8.224 15.0248 8.5C15.0248 8.776 14.8008 9 14.5248 9Z" fill="#133266"/>
    </g>
    <mask id="mask1_124_334" style="mask-type:luminance" maskUnits="userSpaceOnUse" x="12" y="6" width="4" height="5">
        <path fill-rule="evenodd" clip-rule="evenodd" d="M12.0731 6.05682H15.0247V10.944H12.0731V6.05682Z" fill="white"/>
    </mask>
    <g mask="url(#mask1_124_334)">
        <path fill-rule="evenodd" clip-rule="evenodd" d="M12.573 10.944C12.445 10.944 12.3163 10.8953 12.219 10.7967C12.0243 10.6007 12.025 10.2847 12.2203 10.09L13.8163 8.49999L12.2203 6.91066C12.025 6.71599 12.0236 6.39999 12.219 6.20399C12.4136 6.00799 12.7296 6.00799 12.9256 6.20266L14.8776 8.14599C14.9723 8.23932 15.025 8.36732 15.025 8.49999C15.025 8.63266 14.9723 8.76066 14.8776 8.85399L12.9256 10.798C12.8283 10.8953 12.7003 10.944 12.573 10.944Z" fill="#133266"/>
    </g>
</svg>
