<svg width="16" height="17" viewBox="0 0 16 17" fill="none" xmlns="http://www.w3.org/2000/svg">
    <mask id="mask0_122_257" style="mask-type:luminance" maskUnits="userSpaceOnUse" x="2" y="10" width="12" height="6">
        <path fill-rule="evenodd" clip-rule="evenodd" d="M2.66669 10.1641H13.2266V15.0801H2.66669V10.1641Z" fill="white"/>
    </mask>
    <g mask="url(#mask0_122_257)">
        <path fill-rule="evenodd" clip-rule="evenodd" d="M7.94729 11.1641C5.10663 11.1641 3.66663 11.6521 3.66663 12.6154C3.66663 13.5874 5.10663 14.0801 7.94729 14.0801C10.7873 14.0801 12.2266 13.5921 12.2266 12.6287C12.2266 11.6567 10.7873 11.1641 7.94729 11.1641ZM7.94729 15.0801C6.64129 15.0801 2.66663 15.0801 2.66663 12.6154C2.66663 10.4181 5.68063 10.1641 7.94729 10.1641C9.25329 10.1641 13.2266 10.1641 13.2266 12.6287C13.2266 14.8261 10.2133 15.0801 7.94729 15.0801Z" fill="#133266"/>
    </g>
    <mask id="mask1_122_257" style="mask-type:luminance" maskUnits="userSpaceOnUse" x="4" y="1" width="8" height="8">
        <path fill-rule="evenodd" clip-rule="evenodd" d="M4.40662 1.83337H11.4866V8.91244H4.40662V1.83337Z" fill="white"/>
    </mask>
    <g mask="url(#mask1_122_257)">
        <path fill-rule="evenodd" clip-rule="evenodd" d="M7.9473 2.78513C6.51997 2.78513 5.35864 3.9458 5.35864 5.37313C5.35397 6.7958 6.50664 7.9558 7.92797 7.96113L7.9473 8.43713V7.96113C9.37397 7.96113 10.5346 6.7998 10.5346 5.37313C10.5346 3.9458 9.37397 2.78513 7.9473 2.78513ZM7.9473 8.91246H7.92597C5.97797 8.90646 4.39997 7.3178 4.40664 5.37113C4.40664 3.42113 5.99464 1.83313 7.9473 1.83313C9.8993 1.83313 11.4866 3.42113 11.4866 5.37313C11.4866 7.32513 9.8993 8.91246 7.9473 8.91246Z" fill="#133266"/>
    </g>
</svg>
