<svg width="32" height="32" viewBox="0 0 32 32" fill="none" xmlns="http://www.w3.org/2000/svg">
    <path fill-rule="evenodd" clip-rule="evenodd" d="M3.33585 16.0002C3.33213 17.6397 3.25897 19.876 4.27329 20.7119C5.21942 21.4916 5.8853 21.2907 7.61264 21.4175C9.34121 21.5454 12.9893 26.6267 15.8017 25.0194C17.2525 23.8786 17.3603 21.4868 17.3603 16.0002C17.3603 10.5136 17.2525 8.12182 15.8017 6.98096C12.9893 5.37252 9.34121 10.455 7.61264 10.5829C5.8853 10.7097 5.21942 10.5088 4.27329 11.2885C3.25897 12.1244 3.33213 14.3607 3.33585 16.0002Z" stroke="#133266" stroke-width="2.5" stroke-linecap="round" stroke-linejoin="round"/>
    <path d="M26.1124 7.87201C29.5125 12.7667 29.5237 19.2232 26.1124 24.1274" stroke="#133266" stroke-width="2.5" stroke-linecap="round" stroke-linejoin="round"/>
    <path d="M22.7751 11.0859C24.5236 14.1401 24.5236 17.87 22.7751 20.9147" stroke="#133266" stroke-width="2.5" stroke-linecap="round" stroke-linejoin="round"/>
</svg>
